<svg xmlns="http://www.w3.org/2000/svg" xmlns:xlink="http://www.w3.org/1999/xlink" width="100" height="89" viewBox="0 0 100 89">
    <defs>
        <circle id="b" cx="27.5" cy="30.5" r="27.5"/>
        <filter id="a" width="205.5%" height="205.5%" x="-52.7%" y="-34.5%" filterUnits="objectBoundingBox">
            <feMorphology in="SourceAlpha" radius="1.5" result="shadowSpreadOuter1"/>
            <feOffset dy="5" in="shadowSpreadOuter1" result="shadowOffsetOuter1"/>
            <feGaussianBlur in="shadowOffsetOuter1" result="shadowBlurOuter1" stdDeviation="2.5"/>
            <feColorMatrix in="shadowBlurOuter1" result="shadowMatrixOuter1" values="0 0 0 0 0.117773889 0 0 0 0 0.323312953 0 0 0 0 0.216893935 0 0 0 0.187144886 0"/>
            <feMorphology in="SourceAlpha" radius="1.5" result="shadowSpreadOuter2"/>
            <feOffset dy="10" in="shadowSpreadOuter2" result="shadowOffsetOuter2"/>
            <feGaussianBlur in="shadowOffsetOuter2" result="shadowBlurOuter2" stdDeviation="9.5"/>
            <feColorMatrix in="shadowBlurOuter2" result="shadowMatrixOuter2" values="0 0 0 0 0.444177113 0 0 0 0 0.684131567 0 0 0 0 0.583451376 0 0 0 0.221590909 0"/>
            <feMerge>
                <feMergeNode in="shadowMatrixOuter1"/>
                <feMergeNode in="shadowMatrixOuter2"/>
            </feMerge>
        </filter>
        <rect id="d" width="38" height="19" y="1" rx="9.5"/>
        <filter id="c" width="252.6%" height="405.3%" x="-76.3%" y="-100%" filterUnits="objectBoundingBox">
            <feMorphology in="SourceAlpha" radius="1.5" result="shadowSpreadOuter1"/>
            <feOffset dy="5" in="shadowSpreadOuter1" result="shadowOffsetOuter1"/>
            <feGaussianBlur in="shadowOffsetOuter1" result="shadowBlurOuter1" stdDeviation="2.5"/>
            <feColorMatrix in="shadowBlurOuter1" result="shadowMatrixOuter1" values="0 0 0 0 0.117773889 0 0 0 0 0.323312953 0 0 0 0 0.216893935 0 0 0 0.187144886 0"/>
            <feMorphology in="SourceAlpha" radius="1.5" result="shadowSpreadOuter2"/>
            <feOffset dy="10" in="shadowSpreadOuter2" result="shadowOffsetOuter2"/>
            <feGaussianBlur in="shadowOffsetOuter2" result="shadowBlurOuter2" stdDeviation="9.5"/>
            <feColorMatrix in="shadowBlurOuter2" result="shadowMatrixOuter2" values="0 0 0 0 0.444177113 0 0 0 0 0.684131567 0 0 0 0 0.583451376 0 0 0 0.221590909 0"/>
            <feMerge>
                <feMergeNode in="shadowMatrixOuter1"/>
                <feMergeNode in="shadowMatrixOuter2"/>
            </feMerge>
        </filter>
    </defs>
    <g fill="none" fill-rule="evenodd">
        <g transform="translate(15 5)">
            <use fill="#000" filter="url(#a)" xlink:href="#b"/>
            <use fill="#FFF" xlink:href="#b"/>
        </g>
        <path fill="#8CDE98" d="M42.5 15.083c-11.27 0-20.417 9.147-20.417 20.417 0 11.27 9.147 20.417 20.417 20.417 11.27 0 20.417-9.147 20.417-20.417 0-11.27-9.147-20.417-20.417-20.417zm0 6.125a6.117 6.117 0 0 1 6.125 6.125 6.117 6.117 0 0 1-6.125 6.125 6.117 6.117 0 0 1-6.125-6.125 6.117 6.117 0 0 1 6.125-6.125zm0 28.992a14.701 14.701 0 0 1-12.25-6.574c.061-4.063 8.167-6.288 12.25-6.288 4.063 0 12.189 2.225 12.25 6.288A14.701 14.701 0 0 1 42.5 50.2z"/>
        <g transform="translate(47 5)">
            <use fill="#000" filter="url(#c)" xlink:href="#d"/>
            <use fill="#FFF" xlink:href="#d"/>
        </g>
        <text fill="#E61841" font-family="PFDinTextCondPro-Bold, PF Din Text Cond Pro" font-size="12" font-style="condensed" font-weight="bold" letter-spacing=".375" transform="translate(47 5)">
            <tspan x="4" y="9">1000+</tspan>
        </text>
    </g>
</svg>
