<svg width="25" height="25" xmlns="http://www.w3.org/2000/svg"><g transform="translate(1 1)" fill="none" fill-rule="evenodd" opacity=".2"><circle stroke="#000" fill-opacity=".3" fill="#FFF" cx="11.5" cy="11.5" r="11.5"/><g fill="#1D1D1B"><path d="M14.617 16.13c.045.046.045.046 0 0a.973.973 0 0 1 0 1.344.977.977 0 0 1-1.345 0l-1.794-1.791-1.795 1.791a.977.977 0 0 1-1.345 0 .973.973 0 0 1 0-1.343l1.794-1.791a6.174 6.174 0 0 1-1.794-.762.943.943 0 0 1-.314-1.298.946.946 0 0 1 1.3-.314c1.346.851 3.05.851 4.351 0a.946.946 0 0 1 1.301.314.943.943 0 0 1-.314 1.298 5.75 5.75 0 0 1-1.884.762l1.84 1.79z"/><path d="M11.171 5.257a3.272 3.272 0 0 0-3.285 3.286 3.272 3.272 0 0 0 3.285 3.286 3.272 3.272 0 0 0 3.286-3.286 3.272 3.272 0 0 0-3.286-3.286zm0 4.655c-.73 0-1.369-.593-1.369-1.37 0-.73.594-1.368 1.37-1.368.73 0 1.368.593 1.368 1.369s-.638 1.369-1.369 1.369z"/></g></g></svg>