<svg width="25" height="25" xmlns="http://www.w3.org/2000/svg"><g transform="translate(1 1)" fill="none" fill-rule="evenodd" opacity=".2"><circle stroke="#000" fill-opacity=".3" fill="#FFF" cx="11.5" cy="11.5" r="11.5"/><path d="M14.93 12.286c.639.591 1.11 1.05 1.345 1.412.135.197.169.328.101.492-.033.132-.134.197-.302.197l-1.682.066c-.236.033-.539-.131-.875-.427-.336-.295-.572-.558-.673-.755-.067-.131-.202-.197-.37-.197-.168 0-.303.066-.336.263l-.068.656c-.033.132-.067.23-.168.296-.1.065-.168.098-.202.098-.067 0-.168.033-.302.033-.438.033-.841 0-1.144-.066-.337-.065-.64-.164-.908-.36-.27-.198-.505-.362-.64-.493-.134-.132-.37-.361-.672-.69-.841-1.182-1.447-2.167-1.85-3.02a2.69 2.69 0 0 1-.27-.854c.068-.066.202-.099.37-.131a3.27 3.27 0 0 1 .808 0h.639c.202 0 .336.098.437.295.438.92.841 1.642 1.245 2.167.269.23.437.197.538-.131.034 0 .067-.394.067-1.215 0-.525-.201-.854-.639-.985.068-.263.438-.394 1.043-.394.168 0 .336 0 .572.033.235.033.336.033.37.033.505 0 .774.197.774.59 0 .066 0 .165-.034.362-.034.197-.034.36-.034.558v.558c0 .197.034.361.068.493.067.13.134.23.202.262.1-.065.168-.131.269-.197.1-.065.168-.164.269-.295.1-.132.168-.23.202-.296.067-.065.134-.197.235-.36.101-.198.168-.296.168-.362.034-.066.068-.164.169-.394.1-.23.134-.328.134-.328l.034-.066c.1-.164.134-.263.168-.296.034-.032.135-.032.303-.032h1.917c.034 0 .101.032.168.098.135.164 0 .46-.302.985-.337.493-.64.92-.942 1.248-.438.492-.505.853-.202 1.149z" fill-rule="nonzero" fill="#000"/></g></svg>