<svg xmlns="http://www.w3.org/2000/svg" xmlns:xlink="http://www.w3.org/1999/xlink" width="1440" height="95" viewBox="0 0 1440 95">
    <defs>
        <path id="a" d="M0 0h1440v121H0z"/>
    </defs>
    <g fill="none" fill-rule="evenodd" transform="translate(0 -26)">
        <mask id="b" fill="#fff">
            <use xlink:href="#a"/>
        </mask>
        <g fill="#f8f6f0" mask="url(#b)">
            <g transform="translate(-106 34)">
                <circle cx="445.928" cy="86.466" r="67.907" opacity=".8"/>
                <circle cx="608.52" cy="86.157" r="67.907" opacity=".8"/>
                <circle cx="836" cy="86.157" r="50" opacity=".8"/>
                <circle cx="172.731" cy="86.157" r="49.913" opacity=".8"/>
                <circle cx="196.854" cy="86.157" r="67.907" opacity=".5"/>
                <circle cx="511.969" cy="86.466" r="68" opacity=".8"/>
                <circle cx="936.466" cy="86.466" r="60" opacity=".8"/>
                <circle cx="240.299" cy="85.957" r="77" opacity=".8"/>
                <circle cx="130.404" cy="86.157" r="68" opacity=".8"/>
                <circle cx="527.408" cy="85.957" r="33.954" opacity=".8"/>
                <circle cx="648.901" cy="85.957" r="33.954" opacity=".8"/>
                <circle cx="541.87" cy="85.957" r="19.502" opacity=".8"/>
                <circle cx="407.503" cy="85.957" r="85.772" opacity=".8"/>
                <ellipse cx="704" cy="85.029" opacity=".8" rx="74" ry="74.029"/>
                <circle cx="605.057" cy="85.957" r="43.844" opacity=".8"/>
                <circle cx="396.065" cy="85.957" r="33.954" opacity=".8"/>
                <circle cx="216.954" cy="85.957" r="33.954" opacity=".8"/>
                <circle cx="128.947" cy="85.957" r="33.954" opacity=".8"/>
                <circle cx="327.954" cy="85.957" r="50" opacity=".8"/>
                <circle cx="264.771" cy="86.157" r="33.954" opacity=".8"/>
                <circle cx="298.725" cy="86.157" r="67.907" opacity=".5"/>
                <circle cx="67.907" cy="86.157" r="67.907" opacity=".8"/>
                <circle cx="688.907" cy="86.157" r="57" opacity=".8"/>
                <circle cx="831.907" cy="86.157" r="67.907" opacity=".8"/>
                <circle cx="521.74" cy="78.252" r="75.812" opacity=".8"/>
                <circle cx="917.856" cy="84.719" r="75.812" opacity=".8"/>
                <circle cx="193.9" cy="86.157" r="22.995" opacity=".8"/>
                <circle cx="807.591" cy="86.157" r="29.562" opacity=".8"/>
                <circle cx="821.883" cy="86.157" r="40.211" opacity=".8"/>
                <circle cx="782.53" cy="86.157" r="59.454" opacity=".8"/>
                <circle cx="781.662" cy="86.037" r="20.111" opacity=".8"/>
                <circle cx="820.127" cy="86.157" r="13.613" opacity=".8"/>
                <circle cx="842.044" cy="86.157" r="22.995" opacity=".8"/>
                <circle cx="321.995" cy="86.157" r="22.995" opacity=".8"/>
                <circle cx="703.784" cy="86.157" r="33.954" opacity=".8"/>
                <circle cx="362.131" cy="86.157" r="33.924" opacity=".8"/>
                <circle cx="47.924" cy="86.157" r="33.924" opacity=".8"/>
                <circle cx="985.354" cy="86.157" r="67.907" opacity=".8"/>
                <circle cx="921.938" cy="86.157" r="33.924" opacity=".8"/>
            </g>
            <g transform="translate(652 26)">
                <circle cx="445.928" cy="94.466" r="67.907" opacity=".8"/>
                <circle cx="608.52" cy="94.157" r="67.907" opacity=".8"/>
                <circle cx="836" cy="94.157" r="50" opacity=".8"/>
                <circle cx="172.731" cy="94.157" r="49.913" opacity=".8"/>
                <circle cx="196.854" cy="94.157" r="67.907" opacity=".5"/>
                <circle cx="511.969" cy="94.466" r="68" opacity=".8"/>
                <circle cx="936.466" cy="94.466" r="60" opacity=".8"/>
                <circle cx="240.299" cy="93.957" r="77" opacity=".8"/>
                <circle cx="130.404" cy="94.157" r="68" opacity=".8"/>
                <circle cx="527.408" cy="93.957" r="33.954" opacity=".8"/>
                <circle cx="648.901" cy="93.957" r="33.954" opacity=".8"/>
                <circle cx="541.87" cy="93.957" r="19.502" opacity=".8"/>
                <circle cx="377.772" cy="93.957" r="85.772" opacity=".8"/>
                <ellipse cx="713.964" cy="93.957" opacity=".8" rx="94" ry="93.627"/>
                <circle cx="605.057" cy="93.957" r="43.844" opacity=".8"/>
                <circle cx="396.065" cy="93.957" r="33.954" opacity=".8"/>
                <circle cx="216.954" cy="93.957" r="33.954" opacity=".8"/>
                <circle cx="128.947" cy="93.957" r="33.954" opacity=".8"/>
                <circle cx="327.954" cy="93.957" r="50" opacity=".8"/>
                <circle cx="264.771" cy="94.157" r="33.954" opacity=".8"/>
                <circle cx="298.725" cy="94.157" r="67.907" opacity=".5"/>
                <circle cx="67.907" cy="94.157" r="67.907" opacity=".8"/>
                <circle cx="688.907" cy="94.157" r="57" opacity=".8"/>
                <circle cx="831.907" cy="94.157" r="67.907" opacity=".8"/>
                <circle cx="521.74" cy="86.252" r="75.812" opacity=".8"/>
                <circle cx="917.856" cy="92.719" r="75.812" opacity=".8"/>
                <circle cx="193.9" cy="94.157" r="22.995" opacity=".8"/>
                <circle cx="807.591" cy="94.157" r="29.562" opacity=".8"/>
                <circle cx="821.883" cy="94.157" r="40.211" opacity=".8"/>
                <circle cx="782.53" cy="94.157" r="59.454" opacity=".8"/>
                <circle cx="781.662" cy="94.037" r="20.111" opacity=".8"/>
                <circle cx="820.127" cy="94.157" r="13.613" opacity=".8"/>
                <circle cx="842.044" cy="94.157" r="22.995" opacity=".8"/>
                <circle cx="321.995" cy="94.157" r="22.995" opacity=".8"/>
                <circle cx="703.784" cy="94.157" r="33.954" opacity=".8"/>
                <circle cx="362.131" cy="94.157" r="33.924" opacity=".8"/>
                <circle cx="47.924" cy="94.157" r="33.924" opacity=".8"/>
                <circle cx="985.354" cy="94.157" r="67.907" opacity=".8"/>
                <circle cx="921.938" cy="94.157" r="33.924" opacity=".8"/>
            </g>
        </g>
    </g>
</svg>
