<svg id="Слой_1" data-name="Слой 1" xmlns="http://www.w3.org/2000/svg" viewBox="0 0 156.88 246.14"><defs><style>.cls-1{fill:#e5284a;}.cls-2{fill:#fefefe;}.cls-3{fill:none;stroke:#e5284a;stroke-linecap:round;stroke-linejoin:round;stroke-width:0;}</style></defs><title>123</title><path class="cls-1" d="M78.44,0C19.61,0,0,41,0,82s38.89,90.77,78.44,164.1h0c36.43-72.7,78.44-123.07,78.44-164.1S137.27,0,78.44,0Zm0,240.46C40.36,169.84,2.9,121.94,2.9,82.43s18.89-79,75.54-79S154,42.92,154,82.43s-40.46,88-75.54,158Z"/><path class="cls-2" d="M62.28,83.82a163.56,163.56,0,0,1,11.3-16.73h0c.52-.65,1.06-1.3,1.6-1.93l.46-.53.46-.53v0l.11-.12.64-.7.55-.6.28-.3.66-.68.75-.76.18-.17,0,0L80,60l.88-.82L81,59.1l.72-.64.41-.37h0l.07-.06c-.63-1.12-1.33-2.24-2.07-3.37-.19-.28-.36-.57-.55-.85l0,0,0-.06v0l0,0-.58-.82-.11-.16,0,0-.59-.83h0l0,0-.36-.47L77.54,51l0,0c-.27-.35-.53-.71-.81-1.06l0,0h0c-7-8.85-16.89-17.31-21.81-20.4C52.21,35.57,44,65.28,61.16,85.63Zm19-24.93h0Z"/><path class="cls-2" d="M74.12,105.77q.77-.5,1.51-1l.33-.23.08-.06,0,0c.58-.43,1.15-.86,1.71-1.31l.09-.07.18-.15h0q.68-.57,1.33-1.16h0l.08-.07.08-.07.33-.31h0q.61-.58,1.19-1.18l0,0,0,0,.23-.23.07-.07h0c-.62,0-1.24,0-1.86-.09l-.34,0c-.59-.06-1.17-.13-1.76-.22L77,99.28q-.67-.12-1.33-.28L75,98.83c-.44-.12-.87-.25-1.31-.4l-.86-.3-.93-.37-.37-.15v0a26.83,26.83,0,0,1-6.12-3.67,48,48,0,0,1-3.8-3.38C54.79,101.36,47,111.8,33.74,117.78c9.61-.61,27.33-3.55,40.14-11.85l.11-.07Z"/><path class="cls-2" d="M120.31,64.18l-1.9-.12-1-.06-1.75-.1-.43,0h-.06l-.58,0-.64,0h-1.31l-.92,0h-.2l-.24,0h-.2l-.52,0h-.29l-.17,0-.19,0h-.07c-.32,0-.63.09-.93.16h-.16l-.1,0-.07,0-.39.11-.17,0-.25.07h-.08l-.07,0-.09,0-.1,0-.17.07h0c-.21.08-.42.17-.62.27l-.22.11h0a7,7,0,0,0-.6.38c-.09.06-.19.11-.28.18l-.15.12a6.56,6.56,0,0,0-.65.6l-.19.21a7.06,7.06,0,0,0-.67.89,6,6,0,0,0,1.68,8.12,6.27,6.27,0,0,0,6.37.36l.22-.1h0l.12-.06c.2-.1.39-.21.59-.33l.05,0,.06,0,.06,0,.34-.23.43-.29h0l.14-.11,0,0,.2-.16.31-.25.06,0h0l.27-.24h0l.48-.44,0,0,.27-.27.12-.13.1-.11.38-.4h0l.18-.19h0q.39-.45.78-1l0,0A16.79,16.79,0,0,0,119.74,67a12.42,12.42,0,0,0,.71-2.8Z"/><path class="cls-2" d="M85.4,64.7c-.22-.55-.44-1.09-.68-1.65-.13-.3-.28-.6-.42-.9l0-.06,0,0c-.19-.42-.38-.83-.58-1.25v-.05l0,0-.08.07-.28.26-.21.19,0,0-.86.79h0c-.44.41-.86.85-1.29,1.28s-.93.94-1.38,1.42l-.38.41-.08.08,0,0q-.72.78-1.41,1.59l0,0-.41.48,0,0q-.83,1-1.62,2a164.87,164.87,0,0,0-10.71,16l-1.57,2.55a44,44,0,0,0,4,3.65,23.94,23.94,0,0,0,4.83,3l.05,0,.07,0,.6.26.5.21q.54.21,1.08.4l.1,0h0l.21.06.81.25h0l.37.1h0l.71.18h0l.37.08.1,0,.61.11.18,0,.26,0,.13,0,.55.07.61.07.5,0,.65,0h1.5l.69,0,.91-.07h0l.2,0c.19-.27.38-.54.56-.81l.07-.1.36-.55L85,95c.16-.25.31-.51.46-.77l.27-.5.28-.52.3-.58q.38-.77.71-1.56L87.1,91v0c.16-.38.3-.78.43-1.19v-.07l.06-.21,0-.13.09-.32c0-.16.09-.32.14-.48l0-.12,0-.08L88,88,88,88c0-.11,0-.23.07-.34l.06-.29c0-.12.05-.24.08-.36l0-.08.06-.31v0l0-.15a36.82,36.82,0,0,0-.58-14l-.06-.27h0q-.23-1-.5-2l0-.11-.07-.26h0l0-.13v0h0v0l0-.1c-.1-.35-.22-.7-.33-1.06l-.15-.49c-.06-.17-.1-.34-.16-.51q-.36-1.07-.78-2.16C85.55,65.05,85.47,64.87,85.4,64.7Z"/><path class="cls-2" d="M78.44,3.42c-56.66,0-75.54,39.51-75.54,79s37.46,87.41,75.54,158h0c35.09-70,75.54-118.52,75.54-158S135.1,3.42,78.44,3.42ZM139.71,61h0c-.4.22-.79.42-1.19.62l-.38.18-.85.37-.41.17-1,.37-.23.08c-.38.13-.77.25-1.15.35l-.47.13-.74.19-.51.12-.77.15-.59.11-.95.14-.58.07-.63.07-.6.05-.63,0-.79,0-.84,0h-3a15.28,15.28,0,0,1-.76,3.35,18.52,18.52,0,0,1-1.86,3.8c-.36.58-.75,1.15-1.19,1.72l-.22.27c-.32.4-.63.78-.95,1.13l-.26.27c-.31.34-.63.66-.94,1L117,76c-.34.31-.67.6-1,.86l-.14.1q-.53.41-1.07.75l0,0c-4.26,2.69-8.29,2.07-10.91.25a9,9,0,0,1-2.49-12.16,10.21,10.21,0,0,1,1.09-1.43l.11-.13c.18-.19.36-.36.55-.53l.12-.12c.22-.19.44-.37.68-.53l0,0c.21-.15.42-.28.64-.41l.12-.08c.22-.13.45-.24.68-.35l.11-.06.18-.08h0l.47-.19h0l.15-.06h0q.4-.15.82-.27h0l.19-.06.3-.07.32-.08h0l.38-.08h0l.59-.11h0l.45-.07h0L110,61h0l.48,0h0l1-.07h.07l.49,0h1.07l.74,0c.56,0,1.11,0,1.68,0h.28l1.88.11h0l.86.05.83.05.79,0h.17a9.91,9.91,0,0,0-.55-1.92,10.72,10.72,0,0,0-2-3.25h0a12.44,12.44,0,0,0-1-1h0l-.16-.13h0l0,0c-.32-.28-.66-.56-1-.82h0l-.42-.29h0l0,0c-.29-.19-.59-.38-.9-.55l-.1-.05,0,0-.39-.21h0c-.34-.17-.69-.33-1-.48l-.23-.1-.23-.1h-.05a17.59,17.59,0,0,0-1.67-.56,23.23,23.23,0,0,0-15.59,1.63l-.53.23h0l-.45.21h0l-.22.12c-.53.27-1.06.54-1.59.84h0l-.57.35-1.11.67,0,0-.65.42-.91.61-.06,0,0,0-.86.61,0,0-.61.45,0,0-1,.76-.09.07-.06,0,0,0,.19.4q.59,1.17,1.11,2.35l.34.79q.54,1.26,1,2.52l.07.19c3,8,3.83,15.95,2.41,22.66v.07q-.21,1-.48,1.91l-.08.29q-.28.91-.62,1.78l-.09.24v0h0c0,.12-.11.23-.16.34-.24.56-.48,1.11-.74,1.64-.1.2-.21.39-.32.59l0,0c-.2.39-.4.78-.62,1.16h0l.1,0,.14,0,.2-.06h0q.72-.2,1.43-.43l.06,0,.28-.09,0,0q.84-.29,1.67-.63h0l.16-.07.07,0q.71-.3,1.41-.64h0l.34-.17,0,0q.75-.37,1.48-.78h0l.15-.09a36.22,36.22,0,0,0,10.05-8.54A1.5,1.5,0,0,1,108,86.06,38,38,0,0,1,90,98.42h0c-.43.13-.86.25-1.29.36l-.57.13-.85.19c-.44.09-.89.17-1.34.24l-.16,0h-.09v0l-.12.15-.06.07c-.23.29-.47.58-.71.87l-.14.16-.17.21-.27.3-.23.25-.7.76-.18.19-.27.27a41.12,41.12,0,0,1-4.64,4,1.4,1.4,0,0,1-.16.08C62.86,118,39.84,120.86,30.28,120.86a23.57,23.57,0,0,1-3.45-.19c-1.45-.24-1.8-1-1.84-1.61,0-.39.07-1.34,1.46-1.76,16.71-5,25.14-16.39,33.05-29C38.92,65,50.66,30.22,52.87,26.85a1.64,1.64,0,0,1,2.21-.73c4.85,2.57,17.72,13.34,25.62,24.09.47.64.93,1.28,1.36,1.92.69,1,1.33,2,1.94,3.06.18.31.38.61.55.92h0l.16-.12h0l.47-.35,0,0,1.19-.87h0l.59-.41h0l1.2-.8,0,0,.5-.33h0q.76-.48,1.56-.94l.24-.15,0,0,.1-.06c.47-.27.94-.52,1.41-.76l.61-.3.27-.13h0c7.52-3.57,14.78-3.55,20.3-1.4h0l.11,0c.43.17.85.35,1.26.55l.11.05c.42.2.82.42,1.21.65l.2.12q.56.33,1.08.7l.2.14c.35.26.7.52,1,.8l.16.14.13.11,0,0,.45.42.25.25c.2.21.4.42.59.63h0a13.59,13.59,0,0,1,2.73,4.78,12.88,12.88,0,0,1,.55,2.49h2.31l1.07,0h.12l.54,0h.2l.74-.05.25,0h0l.23,0,.22,0q1-.1,1.92-.26.77-.13,1.55-.31l.33-.08c.53-.13,1.06-.28,1.59-.45h0l.12,0,.26-.09h0c.44-.15.88-.32,1.31-.5h0l.06,0,.31-.14.08,0h0l.68-.34c.28-.14.55-.26.83-.41A1.49,1.49,0,0,1,139.71,61Z"/><path class="cls-3" d="M114.21,74.49l.31-.25"/><path class="cls-3" d="M115.76,73.08l.1-.11"/><path class="cls-3" d="M115.86,73l.32-.35"/><path class="cls-3" d="M90.59,90q-.28.91-.62,1.78"/><path class="cls-3" d="M127.66,61.26l.74-.05"/><path class="cls-3" d="M117.51,51.66c.35.26.7.52,1,.8"/><path class="cls-3" d="M114.81,77.72q.53-.34,1.07-.75"/><path class="cls-3" d="M117,76c-.34.31-.67.6-1,.86"/><path class="cls-3" d="M91.16,87.83q-.21,1-.48,1.91"/><path class="cls-3" d="M117.24,75.82c.31-.3.63-.62.94-1"/><path class="cls-3" d="M119.39,73.46c-.32.4-.63.78-.95,1.13"/><path class="cls-3" d="M87.68,62.38q.54,1.26,1,2.52"/><path class="cls-3" d="M86.22,59.24q.59,1.17,1.11,2.35"/><path class="cls-3" d="M108.2,64.36l-.17,0"/><path class="cls-3" d="M107.27,64.67h0"/><path class="cls-3" d="M109.86,64h0"/><path class="cls-3" d="M110.57,63.93l.52,0"/><path class="cls-3" d="M78.15,51.78l-.36-.47"/><path class="cls-3" d="M73.7,98.43l-.86-.3"/><path class="cls-3" d="M74.55,95.56h0"/><path class="cls-3" d="M74.52,95.55l-.07,0"/><path class="cls-3" d="M73.29,95.1l-.06,0"/><path class="cls-3" d="M79.19,99.58l.34,0"/><path class="cls-3" d="M75.57,95.87l.08,0"/><path class="cls-3" d="M79.53,101.57l-.08.07"/><path class="cls-3" d="M79.7,101.41l.11-.1"/><path class="cls-3" d="M75.65,95.89h0"/><path class="cls-3" d="M82.86,96.66l-.69,0"/><path class="cls-3" d="M86.4,67.39q-.36-1.07-.78-2.16"/><path class="cls-3" d="M94,93.62l-.34.17"/><path class="cls-3" d="M94,93.62h0"/><path class="cls-3" d="M92,94.54l.16-.07"/><path class="cls-3" d="M77.44,99.36,77,99.28"/><path class="cls-3" d="M75,98.83l.69.17"/><line class="cls-3" x1="81.24" y1="58.88" x2="81.23" y2="58.89"/><path class="cls-3" d="M88.27,53.5l.5-.33"/><path class="cls-3" d="M90.4,55.69,91.51,55"/><path class="cls-3" d="M85.19,55.65l-.47.35"/><path class="cls-3" d="M87,54.34l-.59.41"/><path class="cls-3" d="M87.81,57.43l-.61.45"/><path class="cls-1" d="M140.29,59a1.49,1.49,0,0,0-2-.58c-.27.15-.55.27-.83.41l-.68.34h0l-.08,0-.31.14-.06,0h0c-.43.18-.87.35-1.31.5h0l-.26.09-.12,0h0c-.53.17-1.06.32-1.59.45l-.33.08q-.77.18-1.55.31-1,.16-1.92.26l-.22,0-.23,0h0l-.25,0-.74.05h-.2l-.54,0h-.12l-1.07,0h-2.31a12.88,12.88,0,0,0-.55-2.49,13.59,13.59,0,0,0-2.73-4.78h0c-.19-.22-.39-.43-.59-.63l-.25-.25-.45-.42,0,0-.13-.11-.16-.14c-.33-.28-.67-.54-1-.8l-.2-.14q-.52-.37-1.08-.7l-.2-.12c-.39-.23-.79-.44-1.21-.65l-.11-.05c-.41-.2-.83-.38-1.26-.55l-.11,0h0c-5.53-2.15-12.79-2.16-20.3,1.4h0l-.27.13-.61.3c-.47.24-.94.49-1.41.76l-.1.06,0,0-.24.15q-.79.46-1.56.94h0l-.5.33,0,0-1.2.8h0l-.59.41h0l-1.19.87,0,0-.47.35h0l-.16.12h0c-.18-.31-.37-.61-.55-.92-.62-1-1.26-2.06-1.94-3.06-.43-.64-.89-1.28-1.36-1.92C72.79,39.47,59.92,28.69,55.08,26.12a1.64,1.64,0,0,0-2.21.73C50.66,30.22,38.92,65,59.5,88.3c-7.91,12.61-16.34,24-33.05,29-1.39.42-1.49,1.37-1.46,1.76,0,.6.39,1.37,1.84,1.61a23.57,23.57,0,0,0,3.45.19c9.57,0,32.58-2.88,47.69-14.08a1.4,1.4,0,0,0,.16-.08,41.12,41.12,0,0,0,4.64-4l.27-.27.18-.19.7-.76.23-.25.27-.3.17-.21.14-.16c.24-.29.48-.57.71-.87l.06-.07.12-.15v0h.09l.16,0c.45-.07.89-.15,1.34-.24l.85-.19.57-.13c.43-.11.86-.23,1.29-.36h0A38,38,0,0,0,108,86.06a1.5,1.5,0,0,0-2.32-1.89,36.22,36.22,0,0,1-10.05,8.54l-.15.09h0q-.73.41-1.48.78l0,0h0l-.34.17h0q-.7.34-1.41.64l-.07,0-.16.07h0q-.83.34-1.67.63l0,0-.28.09-.06,0q-.71.23-1.43.43h0l-.2.06-.14,0-.1,0h0c.22-.38.42-.77.62-1.16l0,0c.1-.2.22-.39.32-.59.27-.54.51-1.09.74-1.64,0-.12.11-.23.16-.34h0v0l.09-.24q.34-.87.62-1.78l.08-.29q.27-.94.48-1.91v-.07c1.43-6.71.55-14.68-2.41-22.66l-.07-.19q-.47-1.26-1-2.52l-.34-.79q-.53-1.18-1.11-2.35l-.19-.4,0,0,.06,0,.09-.07,1-.76,0,0,.61-.45,0,0,.86-.61,0,0,.06,0,.91-.61.65-.42,0,0L91.51,55l.57-.35h0c.53-.31,1.06-.58,1.59-.84l.22-.12h0l.45-.21h0l.53-.23a23.23,23.23,0,0,1,15.59-1.63,17.59,17.59,0,0,1,1.67.56h.05l.23.1.23.1c.36.15.71.31,1,.48h0l.39.21,0,0,.1.05c.31.18.61.36.9.55l0,0h0l.42.29h0c.36.26.7.53,1,.82l0,0h0l.16.13h0a12.44,12.44,0,0,1,1,1h0a10.72,10.72,0,0,1,2,3.25,9.91,9.91,0,0,1,.55,1.92h-.17l-.79,0-.83-.05-.86-.05h0l-1.88-.11h-.28c-.57,0-1.12,0-1.68,0l-.74,0,.74,0-.74,0h-1.07l-.49,0h-.07l-1,.07h0L110,61h0l-.58.07h0l-.45.07h0l-.59.11h0l-.38.08h0l-.32.08-.29.07.29-.07-.3.07-.19.06h0q-.42.12-.82.27h0l-.15.06h0l-.47.19h0l-.18.08-.11.06c-.23.11-.46.23-.68.35l-.12.08c-.22.13-.43.26-.64.41l0,0c-.23.17-.46.34-.68.53l-.12.12c-.19.17-.37.34-.55.53l-.11.13a10.21,10.21,0,0,0-1.09,1.43A9,9,0,0,0,103.86,78c2.62,1.83,6.65,2.44,10.91-.25l0,0q.53-.34,1.07-.75l.14-.1c.34-.26.67-.55,1-.86l.21-.18c.31-.3.63-.62.94-1l.26-.27c.32-.35.63-.73.95-1.13l.22-.27c.44-.57.83-1.14,1.19-1.72a18.52,18.52,0,0,0,1.86-3.8,15.28,15.28,0,0,0,.76-3.35h3l.84,0,.79,0,.63,0,.6-.05.63-.07.58-.07.95-.14.59-.11.77-.15.51-.12.74-.19.47-.13c.39-.11.77-.23,1.15-.35l.23-.08,1-.37.41-.17.85-.37.38-.18c.4-.19.8-.4,1.19-.62h0A1.5,1.5,0,0,0,140.29,59ZM54.87,29.46c4.91,3.1,14.78,11.55,21.81,20.4h0l0,0c.28.35.54.71.81,1.06l0,0,.24.32.36.47,0,0h0l.59.83,0,0,.11.16.58.82,0,0v0l0,.06,0,0c.19.28.37.57.55.85.73,1.12,1.43,2.25,2.07,3.37l-.07.06h0l-.41.37L81,59.1l-.09.08L80,60l-.73.69,0,0-.18.17-.75.76-.66.68-.28.3-.55.6-.64.7-.11.12v0l-.46.53-.46.53c-.54.64-1.08,1.28-1.6,1.93h0a163.56,163.56,0,0,0-11.3,16.73l-1.12,1.81C44,65.28,52.21,35.57,54.87,29.46ZM33.74,117.78c13.3-6,21-16.42,27.88-27.23a48,48,0,0,0,3.8,3.38,26.83,26.83,0,0,0,6.12,3.67v0l.37.15.93.37.86.3c.44.14.87.28,1.31.4l.69.17q.66.16,1.33.28l.41.08c.58.1,1.17.17,1.76.22l.34,0c.62,0,1.24.08,1.86.09h0l-.07.07-.23.23,0,0,0,0q-.58.6-1.19,1.18h0l-.33.31-.08.07-.08.07h0q-.65.59-1.33,1.16h0l-.18.15-.09.07c-.55.45-1.12.89-1.71,1.31l0,0-.08.06-.33.23q-.74.53-1.51,1l-.13.08-.11.07C61.07,114.22,43.35,117.16,33.74,117.78Zm39.49-22.7.06,0Zm2.34.79.08,0h0Zm4.24,5.44-.11.1ZM86.4,67.39c.06.17.11.34.16.51l.15.49c.11.35.23.71.33,1.06l0,.1v0h0v0l0,.13h0l.07.26,0,.11q.28,1,.5,2h0l.06.27a36.82,36.82,0,0,1,.58,14l0,.15v0l-.06.31,0,.08c0,.12-.05.24-.08.36l-.06.29c0,.11,0,.23-.07.34L88,88l-.08.31,0,.08,0,.12c0,.16-.09.32-.14.48l-.09.32,0,.13-.06.21v.07c-.14.41-.28.81-.43,1.19v0L87,91.1q-.33.79-.71,1.56l-.3.58-.28.52-.27.5c-.15.26-.3.51-.46.77l-.07.1-.36.55-.07.1c-.18.27-.37.54-.56.81l-.2,0h0l-.91.07-.69,0h-1.5l-.65,0-.5,0-.61-.07-.55-.07-.13,0-.26,0-.18,0-.61-.11-.1,0-.37-.08h0L76,96h0l-.37-.1h0l-.81-.25-.21-.06h0l-.07,0,.07,0-.1,0q-.54-.18-1.08-.4l-.5-.21-.6-.26-.07,0-.05,0a23.94,23.94,0,0,1-4.83-3,44,44,0,0,1-4-3.65l1.57-2.55a164.87,164.87,0,0,1,10.71-16q.79-1,1.62-2l0,0,.41-.48,0,0q.69-.8,1.41-1.59l0,0,.08-.08.38-.41q.67-.72,1.38-1.42c.43-.43.86-.86,1.29-1.28h0L83,61.3l0,0,.21-.19.28-.26.08-.07,0,0v.05c.21.42.39.83.58,1.25l0,0,0,.06c.14.3.29.6.42.9.24.55.46,1.1.68,1.65.07.18.15.36.22.54Q86,66.32,86.4,67.39Zm38.56-6h0Zm-7.72,10,0,0q-.39.5-.78,1h0l-.18.19h0l-.38.4.32-.35-.32.35-.1.11-.12.13-.27.27,0,0-.48.44h0l-.27.24h0l-.06,0-.31.25-.2.16,0,0-.14.11h0l-.43.29-.34.23-.06,0-.06,0-.05,0c-.2.12-.4.23-.59.33l-.12.06h0l-.22.1a6.27,6.27,0,0,1-6.37-.36,6,6,0,0,1-1.68-8.12,7.06,7.06,0,0,1,.67-.89l.19-.21a6.56,6.56,0,0,1,.65-.6l.15-.12c.09-.07.19-.12.28-.18a7,7,0,0,1,.6-.38h0l.22-.11c.2-.1.41-.18.62-.27h0l.17-.07.1,0,.09,0,.07,0h.08l.25-.07.17,0,.39-.11.07,0,.1,0h.16c.3-.06.61-.11.93-.16h.07l.19,0,.17,0h.29l.52,0h.2l.24,0h.2l.92,0H114l.64,0,.58,0h.06l.43,0,1.75.1,1,.06,1.9.12h.13a12.42,12.42,0,0,1-.71,2.8A16.79,16.79,0,0,1,117.25,71.36Z"/><path class="cls-3" d="M113.9,60.86c.56,0,1.11,0,1.68,0"/><path class="cls-3" d="M113.15,60.84l.74,0"/><path class="cls-3" d="M115.85,60.92h-.05"/><path class="cls-3" d="M117.73,61l-1.88-.11"/><path class="cls-3" d="M107.69,61.4l.32-.08"/><path class="cls-3" d="M107.69,61.4l-.29.07"/><path class="cls-3" d="M109,61.13l-.59.11"/><path class="cls-3" d="M112.61,60.85h.08"/><path class="cls-3" d="M112.61,60.85h-.52"/><path class="cls-3" d="M110,61l-.58.07"/><path class="cls-3" d="M111.52,60.88l-1,.07"/><line class="cls-3" x1="124.96" y1="61.35" x2="124.96" y2="61.35"/></svg>