<svg id="Слой_1" data-name="Слой 1" xmlns="http://www.w3.org/2000/svg" viewBox="0 0 50 73"><defs><style>.cls-1{fill:#fff;}.cls-2{fill:#e61841;}</style></defs><title>Безымянный-2</title><path class="cls-1" d="M327.16,362.07c-13.26-15.62-23.38-28.83-23.38-44.28s11.09-28,24.71-28,24.71,12.56,24.71,28C353.21,333.56,341.17,346.79,327.16,362.07Z" transform="translate(-303.5 -289.5)"/><path class="cls-1" d="M328.5,290.07c13.47,0,24.43,12.43,24.43,27.72,0,15.58-11.89,28.71-25.76,43.85-13.12-15.47-23.1-28.57-23.1-43.85s11-27.72,24.43-27.72m0-.57c-13.81,0-25,12.66-25,28.29s10.22,28.9,23.66,44.71c15.05-16.42,26.34-29.09,26.34-44.71s-11.19-28.29-25-28.29Z" transform="translate(-303.5 -289.5)"/><path class="cls-2" d="M331.78,309a17.52,17.52,0,0,1,1.94-1.29,8.68,8.68,0,0,1,7-1,5.22,5.22,0,0,1,3.23,2.8,4.16,4.16,0,0,1,.3,1.13,9.06,9.06,0,0,0,4.76-.93.48.48,0,0,1,.65.18h0a.48.48,0,0,1-.19.65c-2.27,1.26-4.7,1.11-6.84,1s-3.83-.25-4.66,1.08a1.93,1.93,0,0,0,.54,2.6c.85.59,2.28.55,3.75-1.34a5.46,5.46,0,0,0,.79-1.36.48.48,0,0,1,.9.35h0a6.46,6.46,0,0,1-.93,1.6,4.46,4.46,0,0,1-3.43,2A2.85,2.85,0,0,1,338,316a2.88,2.88,0,0,1-.8-3.9c1.13-1.81,3.27-1.67,5.54-1.52l.58,0a3.2,3.2,0,0,0-.21-.71,4.27,4.27,0,0,0-2.65-2.26,7.73,7.73,0,0,0-6.24.88c-4.16,2.39-6.5,6.18-8.76,9.85l-.51.82a14.08,14.08,0,0,0,1.3,1.17A7.33,7.33,0,0,0,331.6,322a8.82,8.82,0,0,0,1-1.79c1-2.32.68-5.64-.72-8.86a.48.48,0,0,1,.25-.63h0a.48.48,0,0,1,.63.25c1.5,3.46,1.78,7,.73,9.6-3.09,7.56-15,9.22-19.14,9.22a7.56,7.56,0,0,1-1.11-.06c-.47-.08-.58-.32-.59-.51s0-.43.47-.57c4.71-1.41,7.4-4.35,10-8.32a.48.48,0,0,1,.8.52c-2,3.09-4.45,6.15-8.46,7.95,3.76-.24,11.41-1.59,15.34-5.81a8.24,8.24,0,0,1-5.15-1.84c-9.17-7.3-4.8-20.33-4-21.5a.53.53,0,0,1,.71-.23,33.35,33.35,0,0,1,8.67,8.34Q331.4,308.35,331.78,309Zm-.76.61q-.39-.69-.84-1.35a33.38,33.38,0,0,0-7.94-7.8c-.86,2-3.48,11.48,2,18l.36-.58c1.8-2.91,3.64-5.9,6.4-8.27Zm3.07,12.72a.48.48,0,0,1-.17-.93,11.31,11.31,0,0,0,4.65-3.41.48.48,0,0,1,.75.6,12.3,12.3,0,0,1-5.06,3.7.48.48,0,0,1-.17,0Z" transform="translate(-303.5 -289.5)"/></svg>