<svg xmlns="http://www.w3.org/2000/svg" width="328" height="320" viewBox="0 0 328 320">
    <path fill="#8cde98" fill-rule="evenodd" d="M15.076 267.244c2.71 0 5.148.332 7.315.999 2.167.664 4.024 1.675 5.565 3.029 1.542 1.356 2.739 3.078 3.587 5.173.844 2.094 1.27 4.569 1.27 7.427v18.622c0 2.612-.499 4.952-1.497 7.02-.994 2.069-2.337 3.819-4.024 5.247-1.692 1.43-3.655 2.525-5.9 3.289-2.239.763-4.59 1.144-7.058 1.144-2.952 0-5.686-.443-8.202-1.328-2.511-.888-4.557-1.971-6.132-3.253l3.253-5.248a14.328 14.328 0 0 0 5.356 2.736c1.997.54 3.956.813 5.876.813a14.21 14.21 0 0 0 4.358-.664 9.779 9.779 0 0 0 3.621-2.07c1.037-.936 1.862-2.155 2.477-3.658.615-1.503.926-3.29.926-5.36V295.4H6.578v-5.984h19.289v-4.084c0-4.257-.999-7.29-2.996-9.095-1.992-1.805-4.692-2.71-8.091-2.71-1.919 0-3.82.32-5.691.96-1.871.64-3.471 1.528-4.804 2.662l-3.398-5.323a18.921 18.921 0 0 1 6.467-3.474c2.389-.736 4.964-1.107 7.722-1.107zm33.483 51.434V267.76h6.796v21.95h7.912c.785 0 1.624-.075 2.51-.223.888-.148 1.76-.48 2.623-.998.863-.517 1.663-1.268 2.4-2.252.74-.987 1.382-2.318 1.925-3.993l4.653-14.484h6.506l-4.581 14.855c-.79 2.51-1.804 4.606-3.035 6.28-1.231 1.676-2.632 2.786-4.208 3.326 2.114.69 3.767 1.91 4.95 3.657 1.183 1.75 2.142 3.88 2.879 6.395l4.882 16.404h-7.097l-4.436-15.224c-.49-1.672-1.096-3.04-1.808-4.101-.712-1.06-1.493-1.86-2.327-2.403a7.929 7.929 0 0 0-2.661-1.107 13.66 13.66 0 0 0-2.807-.296h-8.28v23.13h-6.796zm65.482-51.359c2.065 0 4.048.232 5.948.7 1.896.471 3.568 1.22 5.022 2.255 1.455 1.034 2.628 2.377 3.51 4.028.887 1.651 1.333 3.658 1.333 6.023 0 2.512-.616 4.816-1.847 6.908-1.231 2.095-3.03 3.585-5.395 4.472 1.376.444 2.559 1.084 3.548 1.92a11.738 11.738 0 0 1 2.439 2.845 12.149 12.149 0 0 1 1.4 3.401c.296 1.207.447 2.402.447 3.583 0 2.71-.47 5.051-1.406 7.021-.936 1.971-2.216 3.61-3.844 4.913-1.624 1.307-3.56 2.267-5.798 2.882-2.245.616-4.644.924-7.21.924a26.36 26.36 0 0 1-4.58-.405 28.23 28.23 0 0 1-4.32-1.11 26.095 26.095 0 0 1-3.77-1.624c-1.16-.616-2.133-1.267-2.92-1.959l3.55-5.024c.688.54 1.537 1.071 2.55 1.588 1.008.515 2.065.96 3.175 1.33 1.11.37 2.23.664 3.364.888 1.13.22 2.143.332 3.03.332 4.087 0 7.044-.875 8.866-2.623 1.823-1.75 2.734-4.104 2.734-7.058 0-2.81-.824-4.94-2.477-6.392-1.648-1.455-3.951-2.18-6.908-2.18h-5.764v-5.69h5.323c1.033 0 2.104-.173 3.214-.519a8.97 8.97 0 0 0 2.99-1.587c.888-.716 1.625-1.614 2.216-2.698.592-1.083.888-2.366.888-3.844 0-2.512-.946-4.359-2.846-5.54-1.896-1.184-4.247-1.776-7.053-1.776-.888 0-1.862.1-2.924.296-1.056.2-2.103.48-3.136.851a26.178 26.178 0 0 0-2.957 1.256c-.935.467-1.725.998-2.366 1.587l-3.548-5.025c1.924-1.428 4.09-2.61 6.505-3.546 2.414-.935 5.42-1.403 9.017-1.403zm48.69 9.754l-3.7 11.823-4.061 12.119h15.886l-4.063-12.119-3.766-11.823h-.296zm14.262 41.605l-3.994-11.456h-20.245l-3.917 11.456h-7.096l17.737-50.918h6.869l17.81 50.918h-7.164zm49.436-35.694c0-2.758-.848-4.952-2.545-6.575-1.702-1.627-3.883-2.439-6.544-2.439h-12.929v17.955h12.929c2.661 0 4.842-.787 6.544-2.363 1.697-1.577 2.545-3.768 2.545-6.578zm6.729 0c0 1.823-.335 3.634-.999 5.432a16.12 16.12 0 0 1-2.846 4.877c-1.231 1.454-2.734 2.637-4.508 3.548-1.774.912-3.795 1.368-6.06 1.368h-14.334v20.468h-6.801V267.76h21.135c2.463 0 4.596.458 6.394 1.37 1.799.911 3.287 2.094 4.47 3.545a15.17 15.17 0 0 1 2.661 4.877c.592 1.8.888 3.61.888 5.432zm33.065-8.941v44.635h-6.942v-44.635h-14.707v-6.282h36.284v6.282h-14.635zm40.396 3.03l-3.7 11.823-4.061 12.119h15.886l-4.063-12.119-3.766-11.823h-.296zm14.262 41.605l-3.994-11.456h-20.245l-3.916 11.456h-7.097l17.738-50.918h6.869l17.81 50.918h-7.165zM182.529 70.141a126.782 126.782 0 0 1 14.032-9.391c16.775-9.672 35.298-12.22 50.835-6.98 10.978 3.699 19.497 11.104 23.373 20.316a30.199 30.199 0 0 1 2.159 8.178c11.446.305 23.454-.633 34.437-6.74a3.466 3.466 0 0 1 4.726 1.347 3.475 3.475 0 0 1-1.347 4.726c-16.453 9.147-34.02 8.023-49.517 7.026-15.489-.982-27.723-1.778-33.749 7.818-4.409 7.03-1.482 15.113 3.894 18.87 6.165 4.306 16.526 4.014 27.155-9.717 2.514-3.24 4.442-6.569 5.726-9.886a3.49 3.49 0 0 1 4.497-1.986 3.475 3.475 0 0 1 1.985 4.496c-1.533 3.946-3.792 7.86-6.712 11.632-8.464 10.924-17.307 14.84-24.8 14.84-4.577 0-8.654-1.463-11.829-3.683-8.044-5.617-12.413-17.726-5.799-28.259 8.215-13.1 23.683-12.115 40.078-11.06 1.38.088 2.776.177 4.187.26a23.253 23.253 0 0 0-1.5-5.168c-3.1-7.377-10.092-13.362-19.184-16.425-13.642-4.591-30.103-2.26-45.14 6.417-30.118 17.366-47.028 44.845-63.382 71.419-1.22 1.983-2.44 3.963-3.664 5.936a101.946 101.946 0 0 0 9.39 8.484c11.204 8.938 24.625 12.913 38.874 11.534 2.862-4.013 5.288-8.333 7.186-12.983 6.88-16.85 4.924-40.874-5.23-64.254a3.469 3.469 0 0 1 1.802-4.57c1.75-.77 3.804.04 4.57 1.803 10.888 25.063 12.867 51.097 5.29 69.648-22.393 54.842-108.685 66.894-138.547 66.894-3.526 0-6.263-.168-8.019-.452-3.367-.548-4.185-2.333-4.276-3.73-.059-.91.152-3.125 3.393-4.099 34.096-10.24 53.572-31.53 72.328-60.342a3.474 3.474 0 1 1 5.825 3.788c-14.602 22.436-32.176 44.601-61.221 57.656 27.249-1.734 82.557-11.499 111-42.141-13.63-.08-26.398-4.614-37.311-13.321-66.353-52.937-34.749-147.451-29.191-155.93 2.092-3.189 4.825-1.864 5.132-1.704 11.942 6.325 44.837 34.085 62.739 60.466 2.05 3.022 3.996 6.13 5.805 9.267zm-5.465 4.447a142.644 142.644 0 0 0-6.092-9.813c-16.048-23.65-44.352-48.334-57.465-56.6-6.195 14.2-25.201 83.266 14.626 130.595a3617.47 3617.47 0 0 0 2.6-4.221c12.994-21.114 26.33-42.784 46.33-59.96zm22.213 92.268a3.48 3.48 0 0 1-3.25-2.237 3.482 3.482 0 0 1 2.013-4.486c12.675-4.829 24.639-13.617 33.687-24.753a3.483 3.483 0 0 1 4.89-.503 3.478 3.478 0 0 1 .504 4.89c-9.81 12.063-22.811 21.604-36.607 26.862a3.496 3.496 0 0 1-1.237.227z"/>
</svg>
