<svg xmlns="http://www.w3.org/2000/svg" width="269" height="221" viewBox="0 0 269 221">
    <path fill="#e61841" fill-rule="evenodd" d="M138.76 70.242a127.018 127.018 0 0 1 14.058-9.405c16.806-9.686 35.363-12.237 50.928-6.989 10.998 3.703 19.533 11.119 23.416 20.344a30.232 30.232 0 0 1 2.163 8.19c11.467.305 23.497-.633 34.5-6.75a3.473 3.473 0 0 1 4.735 1.35 3.48 3.48 0 0 1-1.35 4.732c-16.482 9.16-34.082 8.035-49.607 7.036-15.517-.983-27.774-1.78-33.81 7.83-4.418 7.039-1.485 15.134 3.9 18.896 6.177 4.313 16.557 4.02 27.205-9.73 2.519-3.246 4.45-6.579 5.737-9.9a3.498 3.498 0 0 1 4.505-1.99 3.48 3.48 0 0 1 1.988 4.503c-1.535 3.952-3.798 7.87-6.724 11.649-8.48 10.94-17.339 14.861-24.845 14.861-4.586 0-8.67-1.465-11.85-3.688-8.06-5.625-12.437-17.752-5.81-28.3 8.23-13.118 23.726-12.132 40.15-11.076 1.383.089 2.782.178 4.196.26a23.28 23.28 0 0 0-1.504-5.175c-3.105-7.387-10.11-13.381-19.219-16.448-13.667-4.598-30.158-2.263-45.223 6.426-30.173 17.39-47.114 44.91-63.498 71.521a2151.907 2151.907 0 0 1-3.67 5.945 102.119 102.119 0 0 0 9.407 8.496c11.225 8.951 24.67 12.932 38.945 11.551 2.867-4.02 5.298-8.346 7.2-13.002 6.892-16.875 4.933-40.932-5.24-64.346a3.473 3.473 0 0 1 1.806-4.577c1.752-.77 3.81.04 4.578 1.806 10.908 25.099 12.89 51.17 5.299 69.748C128.693 208.93 42.243 221 12.326 221c-3.533 0-6.275-.168-8.034-.453C.918 220 .1 218.211.007 216.811c-.058-.91.154-3.128 3.4-4.104 34.159-10.256 53.67-31.576 72.461-60.428a3.48 3.48 0 0 1 5.836 3.793c-14.63 22.468-32.236 44.665-61.334 57.739 27.299-1.737 82.709-11.516 111.204-42.202-13.655-.08-26.446-4.62-37.38-13.34C27.72 105.256 59.381 10.606 64.95 2.115 67.045-1.079 69.783.248 70.09.41c11.964 6.334 44.92 34.134 62.854 60.552a150.682 150.682 0 0 1 5.816 9.28zm-5.475 4.453a142.84 142.84 0 0 0-6.103-9.827C111.105 41.184 82.75 16.465 69.612 8.187c-6.207 14.22-25.247 83.385 14.652 130.782.87-1.408 1.738-2.817 2.606-4.227 13.017-21.144 26.377-42.845 46.415-60.047zm22.254 92.4c-1.4 0-2.724-.852-3.255-2.24a3.486 3.486 0 0 1 2.016-4.492c12.698-4.836 24.684-13.637 33.748-24.789a3.49 3.49 0 0 1 4.9-.503 3.482 3.482 0 0 1 .504 4.897c-9.828 12.08-22.853 21.635-36.674 26.9-.41.155-.826.228-1.24.228z"/>
</svg>
