<svg width="34" height="34" xmlns="http://www.w3.org/2000/svg" xmlns:xlink="http://www.w3.org/1999/xlink"><defs><path id="a" d="M11.738 11.738V.001H0v11.737z"/></defs><g transform="translate(1 1)" fill="none" fill-rule="evenodd"><g transform="rotate(45 -1.071 23.071)"><mask id="b" fill="#fff"><use xlink:href="#a"/></mask><path d="M6.72 5.87l4.843-4.843a.6.6 0 1 0-.848-.852L5.87 5.021 1.028.175a.605.605 0 0 0-.852 0 .605.605 0 0 0 0 .852L5.02 5.871.18 10.714a.6.6 0 0 0 .848.848L5.87 6.72l4.845 4.842a.599.599 0 1 0 .848-.848L6.72 5.87z" fill="#1D1D1B" mask="url(#b)"/></g><circle stroke="#211F22" cx="16" cy="16" r="16"/></g></svg>