<svg width="20" height="20" xmlns="http://www.w3.org/2000/svg" xmlns:xlink="http://www.w3.org/1999/xlink"><defs><path id="a" d="M0 10V0h20v20H0V10z"/></defs><g fill="none" fill-rule="evenodd"><mask id="b" fill="#fff"><use xlink:href="#a"/></mask><path d="M10 .667C4.854.667.667 4.854.667 10S4.854 19.333 10 19.333s9.333-4.187 9.333-9.333S15.146.667 10 .667M10 20C4.486 20 0 15.514 0 10S4.486 0 10 0s10 4.486 10 10-4.486 10-10 10" fill="#000" mask="url(#b)"/><path d="M10 2.333c-4.227 0-7.667 3.44-7.667 7.667 0 4.228 3.44 7.667 7.667 7.667s7.667-3.44 7.667-7.667c0-4.228-3.44-7.667-7.667-7.667m0 16c-4.595 0-8.333-3.738-8.333-8.333 0-4.595 3.738-8.333 8.333-8.333 4.595 0 8.333 3.738 8.333 8.333 0 4.595-3.738 8.333-8.333 8.333" fill="#000"/><path d="M10 4.667a.333.333 0 0 1-.333-.334v-1a.333.333 0 1 1 .666 0v1a.333.333 0 0 1-.333.334M10 17a.333.333 0 0 1-.333-.333v-1a.333.333 0 1 1 .666 0v1A.333.333 0 0 1 10 17m6.667-6.667h-1a.333.333 0 1 1 0-.666h1a.333.333 0 1 1 0 .666m-12.334 0h-1a.333.333 0 1 1 0-.666h1a.333.333 0 1 1 0 .666m5.667-1a.667.667 0 1 0 .001 1.335A.667.667 0 0 0 10 9.333m0 2A1.335 1.335 0 0 1 8.667 10c0-.735.598-1.333 1.333-1.333s1.333.598 1.333 1.333-.598 1.333-1.333 1.333" fill="#000"/><path d="M10 9.333A.333.333 0 0 1 9.667 9V6a.333.333 0 1 1 .666 0v3a.333.333 0 0 1-.333.333m2.667 1H11a.333.333 0 1 1 0-.666h1.667a.333.333 0 1 1 0 .666M5.993 6.326a.332.332 0 0 1-.236-.097l-.66-.66a.333.333 0 1 1 .472-.471l.66.66a.333.333 0 0 1-.236.568M14.667 15a.332.332 0 0 1-.236-.098l-.66-.66a.333.333 0 1 1 .472-.47l.66.659a.333.333 0 0 1-.236.569m-.66-8.674a.332.332 0 0 1-.236-.569l.66-.66a.333.333 0 1 1 .471.472l-.66.66a.332.332 0 0 1-.235.097M5.333 15a.332.332 0 0 1-.235-.569l.66-.66a.333.333 0 1 1 .47.472l-.659.66a.332.332 0 0 1-.236.097" fill="#000"/></g></svg>