<svg xmlns="http://www.w3.org/2000/svg" xmlns:xlink="http://www.w3.org/1999/xlink" width="34" height="34"><defs><path id="a" d="M20.225 17H0V.407h20.225V17z"/></defs><g fill="none" fill-rule="evenodd" transform="translate(1 1)"><circle cx="16" cy="16" r="16" stroke="#211F22"/><g transform="translate(6 6.593)"><mask id="b" fill="#fff"><use xlink:href="#a"/></mask><path fill="#1D1D1B" d="M13.712 1.481l1.32 3.302h3.402c.396 0 .718.322.718.717v9.697a.73.73 0 0 1-.73.73H1.803a.73.73 0 0 1-.728-.73V5.5c0-.395.322-.717.718-.717h3.4l1.32-3.302h7.2zm4.722 2.228h-2.675L14.438.407H5.787L4.467 3.71h-.091V2.06H1.982v1.65h-.19C.804 3.71 0 4.513 0 5.5v9.697C0 16.191.809 17 1.803 17h16.62c.994 0 1.802-.809 1.802-1.803V5.5c0-.987-.803-1.79-1.791-1.79z" mask="url(#b)"/></g><path fill="#1D1D1B" d="M16.113 11.927a4.2 4.2 0 0 1 4.196 4.196 4.2 4.2 0 0 1-4.196 4.194 4.2 4.2 0 0 1-4.196-4.194 4.2 4.2 0 0 1 4.196-4.196m0 9.353a5.163 5.163 0 0 0 5.158-5.157 5.165 5.165 0 0 0-5.158-5.16 5.165 5.165 0 0 0-5.158 5.16 5.163 5.163 0 0 0 5.158 5.157"/><path fill="#1D1D1B" d="M16.113 13.853a2.272 2.272 0 0 1 2.27 2.27 2.272 2.272 0 0 1-2.27 2.27 2.272 2.272 0 0 1-2.27-2.27 2.272 2.272 0 0 1 2.27-2.27m0 5.447a3.181 3.181 0 0 0 3.179-3.177 3.182 3.182 0 0 0-3.18-3.18 3.182 3.182 0 0 0-3.178 3.18 3.181 3.181 0 0 0 3.179 3.177m7.265-6.81a.661.661 0 0 1 0 1.32.662.662 0 0 1-.661-.66c0-.363.297-.66.661-.66m0 1.982a1.323 1.323 0 0 0 0-2.643c-.729 0-1.322.593-1.322 1.32 0 .73.593 1.323 1.322 1.323"/></g></svg>