<svg width="34" height="34" xmlns="http://www.w3.org/2000/svg">
    <g transform="translate(1 1)" fill="none" fill-rule="evenodd">
        <path d="M21.057 11.996l-.461.46-2.053-2.053.46-.46a.62.62 0 0 1 .876 0l1.178 1.177a.618.618 0 0 1 0 .876zm-8.495 8.495l-2.054-2.053 7.496-7.496 2.053 2.053-7.495 7.496zm-2.706.653l.357-1.924 1.567 1.567-1.924.357zm11.74-10.562l-1.179-1.178a1.382 1.382 0 0 0-1.952 0l-8.764 8.765a.388.388 0 0 0-.106.2l-.589 3.18a.38.38 0 0 0 .444.445l3.18-.59a.388.388 0 0 0 .2-.105l8.765-8.765a1.38 1.38 0 0 0 0-1.952z"
              fill="#211F22"/>
        <circle stroke="#211F22" cx="16" cy="16" r="16"/>
    </g>
</svg>