<svg width="18" height="18" xmlns="http://www.w3.org/2000/svg" xmlns:xlink="http://www.w3.org/1999/xlink"><defs><path id="a" d="M0 17.962V.025h17.936v17.937z"/></defs><g fill="none" fill-rule="evenodd"><g transform="translate(-.002 .013)"><mask id="b" fill="#fff"><use xlink:href="#a"/></mask><path d="M16.664 11.32l-5.37 5.37c-.59.589-1.616.589-2.206 0L1.412 9.013a2.025 2.025 0 0 1-.597-1.441V1.656c0-.45.366-.815.816-.815h5.917a2.05 2.05 0 0 1 1.44.597l7.676 7.675c.295.295.457.686.457 1.104 0 .417-.162.808-.457 1.103m.576-2.783L9.565.86A2.873 2.873 0 0 0 7.548.025H1.63C.73.025 0 .757 0 1.656v5.917C0 8.335.297 9.05.836 9.59l7.675 7.675a2.363 2.363 0 0 0 1.68.696 2.36 2.36 0 0 0 1.68-.696l5.37-5.37a2.357 2.357 0 0 0 .695-1.68 2.36 2.36 0 0 0-.696-1.68" fill="#000" mask="url(#b)"/></g><path d="M9.6 10.217a.406.406 0 0 0 .577 0 .407.407 0 0 0 0-.576L9.6 9.064l.577-.576.865.865a.408.408 0 1 0 .576-.577l-1.153-1.153a.407.407 0 0 0-.576 0L7.583 9.929a.408.408 0 0 0 0 .577l1.153 1.152a.406.406 0 0 0 .576 0 .407.407 0 0 0 0-.576l-.864-.865.576-.576.577.576zm3.171-.287a.407.407 0 0 0-.576 0l-2.306 2.305a.408.408 0 0 0 0 .576l1.153 1.154a.406.406 0 0 0 .576 0 .408.408 0 0 0 0-.577l-.865-.865.577-.576.576.576a.406.406 0 0 0 .577 0 .407.407 0 0 0 0-.576l-.577-.577.577-.576.864.864a.408.408 0 1 0 .577-.576L12.77 9.929zM5.277 5.725a.406.406 0 0 0 .288-.696l-.577-.577.577-.576.864.864a.408.408 0 1 0 .577-.576L5.853 3.011a.42.42 0 0 0-.576 0L4.124 4.164 2.97 5.317a.408.408 0 1 0 .576.577l.865-.865.576.576c.08.08.184.12.289.12m2.595.457l.289.288a.408.408 0 0 1-.289.696.402.402 0 0 1-.288-.12l-.288-.288.576-.576zm.067 1.797a1.224 1.224 0 0 0 .798-2.086l-.576-.576a.408.408 0 0 0-.577 0L6.441 6.46l-.012.011a.088.088 0 0 0-.01.011L5.277 7.623a.408.408 0 1 0 .576.576l.865-.864.289.288a.41.41 0 0 1 0 .576l-.578.577a.408.408 0 1 0 .577.577l.577-.577c.22-.221.34-.507.355-.797z" fill="#000"/></g></svg>