<svg width="17" height="16" xmlns="http://www.w3.org/2000/svg"><path d="M14.298 8.29c-1.398.465-3.265.72-5.256.72-1.99 0-3.858-.255-5.256-.72-1.175-.39-1.899-.895-1.97-1.366 1.553.66 3.888 1.005 6.14 1.005 3.172 0 6.505-.683 7.592-1.966.47.292.728.602.728.885 0 .492-.74 1.03-1.978 1.442zm1.978.72c0 .417-.532.867-1.447 1.246V8.867c.583-.215 1.077-.469 1.447-.76v.904zm-3.617 1.854V9.429c.51-.09.996-.199 1.446-.327v1.412c-.442.137-.928.254-1.446.35zm-2.17.263V9.685c.49-.032.975-.08 1.446-.144v1.44c-.464.065-.948.114-1.446.146zm-2.17.035V9.72a22.128 22.128 0 0 0 1.446 0v1.442a22.847 22.847 0 0 1-1.446 0zm-2.17-.181V9.54c.47.064.956.112 1.446.144v1.442a19.606 19.606 0 0 1-1.447-.146zm-2.17-.467V9.102c.45.128.936.237 1.446.327v1.435a12.747 12.747 0 0 1-1.447-.35zm9.596 1.74c-1.399.465-3.266.721-5.256.721-1.991 0-3.858-.256-5.257-.72-1.238-.411-1.977-.95-1.977-1.442 0-.282.245-.54.506-.735 1.211 1.186 4.406 1.816 7.451 1.816 2.435 0 4.966-.403 6.501-1.17a.51.51 0 0 1 .01.089c0 .491-.74 1.03-1.978 1.442zm1.977.721c0 .417-.532.867-1.446 1.245v-1.388c.582-.215 1.077-.47 1.446-.761v.904zm-2.17 1.503a12.74 12.74 0 0 1-1.447.35v-1.434c.51-.09.996-.2 1.447-.328v1.412zm-2.17.468c-.464.064-.948.113-1.447.146v-1.443c.49-.032.976-.08 1.447-.143v1.44zm-2.17.18a22.72 22.72 0 0 1-1.447 0v-1.442a22.6 22.6 0 0 0 1.447 0v1.442zm-2.17-.034a19.602 19.602 0 0 1-1.447-.146v-1.44c.472.063.957.111 1.447.143v1.443zm-2.17-.264a12.728 12.728 0 0 1-1.447-.35v-1.412c.45.129.937.238 1.447.328v1.434zm-2.17-.608c-.915-.378-1.447-.828-1.447-1.245v-.904c.37.292.864.546 1.447.76v1.39zm-.724-6.114c.37.292.864.546 1.447.76v1.39c-.915-.379-1.447-.829-1.447-1.245v-.905zM.723 5.046v-.904c.37.291.864.545 1.447.76v1.389C1.255 5.913.723 5.462.723 5.046zm3.617.418V6.9a12.784 12.784 0 0 1-1.447-.35V5.137c.451.128.937.238 1.447.327zm2.17.256v1.442a19.697 19.697 0 0 1-1.447-.146v-1.44c.472.064.957.112 1.447.144zm2.17.035v1.442a22.836 22.836 0 0 1-1.446 0V5.755a22.019 22.019 0 0 0 1.446 0zm2.17-.179v1.44c-.464.065-.948.114-1.446.146V5.72c.49-.032.975-.08 1.446-.144zm2.17-.44V6.55a12.74 12.74 0 0 1-1.446.35V5.464c.51-.09.996-.199 1.446-.327zm2.17-.994v.904c0 .416-.532.867-1.446 1.245V4.902c.583-.215 1.077-.469 1.447-.76zM2.7 1.442C4.1.976 5.967.72 7.958.72c1.99 0 3.858.256 5.256.72 1.238.412 1.977.95 1.977 1.442s-.739 1.031-1.977 1.443c-1.399.464-3.265.72-5.256.72S4.099 4.79 2.7 4.326C1.462 3.914.723 3.376.723 2.883c0-.491.74-1.03 1.978-1.442zm13.183 3.88c.02-.09.03-.182.03-.276V2.883C15.914 1.011 11.815 0 7.958 0S0 1.01 0 2.883c0 .081.008.16.023.238A.356.356 0 0 0 0 3.244v1.802c0 .6.42 1.11 1.117 1.528a1.231 1.231 0 0 0-.009.512.356.356 0 0 0-.023.122v1.803c0 .165.033.324.094.476-.668.492-.817.986-.817 1.326 0 .08.008.16.023.237a.357.357 0 0 0-.023.123v1.802c0 1.873 4.1 2.884 7.957 2.884s7.957-1.01 7.957-2.884v-2.162c0-.16-.033-.318-.095-.473.516-.378.818-.822.818-1.33V6.849c0-.397-.2-.973-1.116-1.526z" fill="#1D1D1B" fill-rule="evenodd"/></svg>