<svg width="12" height="20" xmlns="http://www.w3.org/2000/svg" xmlns:xlink="http://www.w3.org/1999/xlink"><defs><path id="a" d="M11.05 20H0V.5h11.05z"/></defs><g fill="none" fill-rule="evenodd"><g transform="translate(0 -.5)"><mask id="b" fill="#fff"><use xlink:href="#a"/></mask><path d="M10.4 2.45H.65v-.519c0-.43.352-.78.782-.78h8.187c.43 0 .782.35.782.78v.52zm-9.75 13h9.75V3.1H.65v12.35zm9.75 3.118c0 .43-.35.781-.781.781H1.432a.783.783 0 0 1-.781-.78v-2.47h9.75v2.47zM9.62.5H1.432C.642.5 0 1.142 0 1.931v16.637C0 19.358.643 20 1.432 20h8.187c.79 0 1.43-.643 1.43-1.432V1.931c0-.789-.64-1.43-1.43-1.43z" fill="#1D1D1B" mask="url(#b)"/></g><path d="M5.526 16.575a.65.65 0 1 1-.001 1.3.65.65 0 0 1 0-1.3m0 1.95a1.301 1.301 0 0 0 0-2.6c-.716 0-1.3.583-1.3 1.3 0 .716.584 1.3 1.3 1.3M5.526.974h-1.3A.324.324 0 0 0 3.9 1.3c0 .18.144.326.325.326h1.3a.326.326 0 0 0 0-.65M7.053.974h-.325a.325.325 0 1 0 0 .651h.325a.325.325 0 0 0 0-.65" fill="#1D1D1B"/></g></svg>