<svg width="14" height="20" xmlns="http://www.w3.org/2000/svg"><g fill="#1D1D1B" fill-rule="evenodd"><path d="M7.038 8.78a1.82 1.82 0 0 1 0-3.637 1.82 1.82 0 0 1 1.818 1.818 1.82 1.82 0 0 1-1.818 1.818m0-4.363a2.548 2.548 0 0 0-2.546 2.545 2.548 2.548 0 0 0 2.546 2.546A2.548 2.548 0 0 0 9.583 6.96a2.548 2.548 0 0 0-2.545-2.545"/><path d="M11.962 11.481l-4.987 7.205-4.999-7.216c-1.89-2.52-1.62-6.66.58-8.86A6.212 6.212 0 0 1 6.976.78c1.667 0 3.235.65 4.415 1.829 2.2 2.2 2.472 6.34.572 8.872m-.057-9.387A6.932 6.932 0 0 0 6.975.052a6.934 6.934 0 0 0-4.933 2.042c-2.436 2.438-2.74 7.022-.655 9.801l5.588 8.068 5.576-8.057c2.094-2.79 1.79-7.374-.646-9.812"/></g></svg>