<svg xmlns="http://www.w3.org/2000/svg" xmlns:xlink="http://www.w3.org/1999/xlink" width="22" height="22" viewBox="0 0 22 22">
    <defs>
        <path id="a" d="M7 5h8v12H7z"/>
    </defs>
    <g fill="none" fill-rule="evenodd">
        <circle cx="11" cy="11" r="11" fill="#D8D8D8" fill-rule="nonzero"/>
        <mask id="b" fill="#fff">
            <use xlink:href="#a"/>
        </mask>
        <path fill="#231F20" d="M10.756 14.341c.736 0 1.342.598 1.342 1.328 0 .731-.606 1.331-1.342 1.331a1.342 1.342 0 0 1-1.346-1.33c0-.73.607-1.329 1.346-1.329M10.836 5C12.937 5 15 5.957 15 8.242c0 2.11-2.443 2.92-2.968 3.68-.392.57-.26 1.365-1.343 1.365-.704 0-1.05-.568-1.05-1.086 0-1.931 2.87-2.369 2.87-3.959 0-.874-.59-1.394-1.574-1.394-2.099 0-1.28 2.141-2.87 2.141C7.493 8.99 7 8.647 7 8 7 6.41 8.836 5 10.837 5" mask="url(#b)"/>
    </g>
</svg>
