<svg width="18" height="20" xmlns="http://www.w3.org/2000/svg">
    <path d="M14.523 18.897c-1.288 0-2.334-1.069-2.334-2.383s1.046-2.382 2.334-2.382c1.287 0 2.333 1.068 2.333 2.382s-1.046 2.383-2.333 2.383M3.403 12.66c-1.287 0-2.333-1.068-2.333-2.382s1.046-2.383 2.334-2.383c1.287 0 2.333 1.069 2.333 2.383s-1.05 2.382-2.333 2.382M14.523 1.669c1.287 0 2.333 1.068 2.333 2.382s-1.046 2.382-2.333 2.382c-1.288 0-2.334-1.068-2.334-2.382s1.05-2.382 2.334-2.382m0 11.379a3.38 3.38 0 0 0-2.693 1.354l-5.224-2.979a3.548 3.548 0 0 0-.004-2.293l5.22-2.975c.62.826 1.6 1.363 2.697 1.363 1.871 0 3.4-1.556 3.4-3.471s-1.525-3.47-3.4-3.47c-1.876 0-3.4 1.555-3.4 3.47 0 .403.067.79.194 1.149L6.097 8.17A3.36 3.36 0 0 0 3.4 6.808c-1.872 0-3.4 1.556-3.4 3.47 0 1.915 1.528 3.471 3.404 3.471a3.377 3.377 0 0 0 2.7-1.366l5.22 2.978a3.516 3.516 0 0 0-.197 1.157c0 1.91 1.524 3.47 3.4 3.47 1.875 0 3.4-1.555 3.4-3.47 0-1.914-1.529-3.47-3.404-3.47"
          fill="#ffffff" fill-rule="evenodd"/>
</svg>