<svg width="16" height="21" xmlns="http://www.w3.org/2000/svg"><g fill-rule="evenodd"><path d="M15.438 20.443H.562v-2.74c0-2.079 1.705-3.77 3.8-3.77h.429v1.749c0 2.13 2.947 3.778 3.073 3.847l.136.075.136-.075c.126-.07 3.073-1.717 3.073-3.847v-1.749h.429c2.095 0 3.8 1.691 3.8 3.77v2.74zm-8.997-6.51v-2.19a4.331 4.331 0 0 0 3.118 0v2.19h1.088v1.749c0 1.568-2.088 2.94-2.647 3.28-.56-.34-2.647-1.71-2.647-3.28v-1.749H6.44zM4.24 7.745v-.01a.28.28 0 0 0-.28-.275h-.07a.575.575 0 0 1-.576-.572v-.41c.868-.025 1.53-.293 1.97-.797.464-.532.557-1.193.565-1.596 1.906.24 2.917-.553 3.33-1.01.457.482 1.515 1.467 2.61 1.577l-.005.5a.282.282 0 0 0 .281.282h.047c.318 0 .576.257.576.572v.882a.575.575 0 0 1-.576.572h-.07a.28.28 0 0 0-.28.274v.01c0 2.058-1.687 3.731-3.761 3.731s-3.76-1.673-3.76-3.73zm-.35-2.31h.047a.28.28 0 0 0 .2-.083.278.278 0 0 0 .081-.2l-.02-1.608a.271.271 0 0 0-.01-.069.26.26 0 0 0 .004-.041c0-1.586 1.301-2.877 2.9-2.877H8.91c1.599 0 2.9 1.29 2.9 2.877a.26.26 0 0 0 .004.041.27.27 0 0 0-.01.069l-.007.548c-1.17-.15-2.404-1.614-2.417-1.63a.282.282 0 0 0-.46.038c-.009.014-.864 1.43-3.316.983a.282.282 0 0 0-.33.313c.002.009.121.91-.417 1.523-.33.375-.847.574-1.536.6a.575.575 0 0 1 .57-.484zm7.749 7.94H10.12V11.48A4.29 4.29 0 0 0 12.314 8c.53-.096.934-.557.934-1.111v-.882c0-.542-.387-.996-.902-1.104l.017-1.351a.29.29 0 0 0-.004-.046.28.28 0 0 0 .01-.071C12.37 1.54 10.818 0 8.91 0H7.09C5.182 0 3.63 1.54 3.63 3.434c0 .025.004.048.01.07a.271.271 0 0 0-.004.047l.017 1.351a1.133 1.133 0 0 0-.902 1.104v.882c0 .553.404 1.015.934 1.11a4.289 4.289 0 0 0 2.195 3.48v1.898H4.363C1.957 13.376 0 15.317 0 17.704V21h16v-3.296c0-2.387-1.957-4.328-4.362-4.328z"/><path d="M9 9.5c0-.276-.12-.5-.267-.5H7.267C7.119 9 7 9.224 7 9.5s.12.5.267.5h1.466C8.881 10 9 9.776 9 9.5"/></g></svg>