<?xml version="1.0" encoding="iso-8859-1"?>
<!-- Generator: Adobe Illustrator 18.0.0, SVG Export Plug-In . SVG Version: 6.00 Build 0)  -->
<!DOCTYPE svg PUBLIC "-//W3C//DTD SVG 1.1//EN" "http://www.w3.org/Graphics/SVG/1.1/DTD/svg11.dtd">
<svg version="1.1" id="Capa_1" xmlns="http://www.w3.org/2000/svg" xmlns:xlink="http://www.w3.org/1999/xlink" x="0px" y="0px"
	 viewBox="0 0 390.285 390.285" style="enable-background:new 0 0 390.285 390.285;" xml:space="preserve">
<path fill="#e61841" d="M318.595,184.347c0-20.876-17.009-37.885-37.916-37.885c-4.749,0-9.561,0.912-14.067,2.61
	c-6.265-12.294-19.051-20.747-33.772-20.747c-5.246,0-10.244,0.993-14.788,2.789c-6.39-11.94-18.99-20.084-33.458-20.084
	c-3.625,0-7.175,0.507-10.568,1.486l0.031-49.951l0.011-19.645c0.002-4.012,0.003-6.333-0.023-7.805h0.024
	C174.069,15.753,157.147,0,136.347,0C115.44,0,98.432,17.009,98.432,37.916v130.557c-5.036,1.668-9.815,4.382-13.896,7.973
	c-8.327,7.328-12.913,17.444-12.913,28.487c0,59.285,12.402,84.895,23.345,107.491c8.449,17.447,15.123,31.228,15.123,60.81
	c0,9.417,7.634,17.052,17.052,17.052h152.348c9.417,0,17.052-7.635,17.052-17.052c0-22.678,4.377-40.231,9.445-60.557
	c5.941-23.829,12.676-50.837,12.676-89.969L318.595,184.347z M279.489,373.233H127.142c0-73.098-38.467-66.098-38.467-168.301
	c0-13.407,11.897-21.316,21.314-21.316v24.572c0,3.091,2.143,3.451,2.784,3.451c0.639,0,2.71-0.352,2.71-3.443
	c0-2.983,0-170.28,0-170.28c0-11.521,9.341-20.864,20.863-20.864c10.574,0,20.671,7.637,20.671,18.064
	c0.008,0.038-0.054,91.612-0.065,110.451c-0.001,0.039-0.011,0.077-0.011,0.116v3.936c0,1.877,1.521,3.397,3.397,3.397
	c1.876,0,3.397-1.521,3.397-3.397v-1.019c0.185-11.364,9.449-20.518,20.857-20.518c11.523,0,20.864,9.342,20.864,20.864
	l0.017,15.108c0,1.849,1.499,3.346,3.346,3.346c1.848,0,3.347-1.497,3.347-3.346l-0.008-0.865c0-10.49,10.194-17.813,20.681-17.813
	c11.524,0,20.821,9.342,20.821,20.864l0.042,15.291c0,1.799,1.457,3.257,3.255,3.257c1.799,0,3.256-1.458,3.256-3.257l-0.012-1.162
	c0-9.542,10.323-16.856,20.477-16.856c11.522,0,20.864,9.341,20.864,20.863l0.067,38.331
	C301.61,292.136,279.489,320.136,279.489,373.233z"/>
<g>
</g>
<g>
</g>
<g>
</g>
<g>
</g>
<g>
</g>
<g>
</g>
<g>
</g>
<g>
</g>
<g>
</g>
<g>
</g>
<g>
</g>
<g>
</g>
<g>
</g>
<g>
</g>
<g>
</g>
</svg>
